PathFileType	4	(X/Y/Z)	D:\TRACE\v60_Jaco2_6-2-23\BothDRS_Motion1_10-v60.trc
DataRate	CameraRate	NumFrames	NumMarkers	Units	OrigDataRate	OrigDataStartFrame	OrigNumFrames
100.00	100.00	      35	9	mm	100.00	938	      7500
Frame#	Time	front left toe			Front right toe			aft left toe			aft right toe			Arm			FL body			FR body			AL Body			AR Body			
		X1	Y1	Z1	X2	Y2	Z2	X3	Y3	Z3	X4	Y4	Z4	X5	Y5	Z5	X6	Y6	Z6	X7	Y7	Z7	X8	Y8	Z8	X9	Y9	Z9	

938	9.370	-124.31559	133.20210	-226.11800	257.52673	5.38706	-254.29922	-95.45210	26.24477	392.52478	276.84384	150.07289	380.04648	83.30251	1200.81726	-316.53265	-21.99374	570.01892	-374.20920	138.40233	568.71808	-382.88895	27.87809	572.15436	570.09821	185.42538	565.15765	563.87268	
939	9.380	-122.17894	127.13321	-226.25676	256.80719	5.11625	-254.36446	-95.74595	26.05623	392.45526	280.12775	145.00798	380.43839	83.00111	1200.68689	-315.97256	-22.03334	569.97845	-374.07172	138.40356	568.65417	-382.60690	27.37404	572.09149	570.36914	184.80818	565.06738	564.16296	
940	9.390	-120.17966	120.43002	-226.88475	256.66541	5.24388	-254.25694	-96.80629	26.46115	392.51678	281.54041	138.21187	380.22433	82.32799	1200.81885	-315.76202	-21.69883	569.88135	-373.84738	138.52434	568.77435	-382.37057	27.08241	571.88544	570.73187	184.77422	565.53534	565.59448	
941	9.400	-119.10789	113.76627	-227.44025	256.04904	5.11791	-254.04387	-97.51463	26.38341	392.47778	284.69092	130.84868	380.04367	82.02271	1200.74805	-315.45132	-21.43791	569.79382	-373.42459	138.81023	568.60266	-381.51892	27.23228	571.99579	571.80695	184.16844	565.14575	565.14551	
942	9.410	-117.78529	106.36129	-228.19733	254.04626	4.80540	-254.26236	-98.23748	26.38022	392.41940	286.98325	123.03733	380.25916	81.23750	1200.66638	-315.08197	-21.13931	569.50897	-373.04163	139.10179	568.43927	-381.06079	26.58704	571.54199	571.65271	183.67937	564.94391	565.52942	
943	9.420	-116.50731	98.73197	-228.09415	253.45297	4.67828	-254.32945	-98.57677	26.31334	392.29602	289.59662	114.28201	380.18878	80.71332	1200.60791	-314.72992	-20.75276	569.20154	-372.46048	139.07278	568.42206	-380.73691	26.14536	571.06702	571.73773	183.34259	564.79150	565.85663	
944	9.430	-114.31830	90.32132	-228.13913	252.49738	4.40929	-254.33325	-101.14815	27.59521	392.00845	291.20779	105.02768	380.51971	80.17140	1200.43555	-314.25458	-20.63035	568.78174	-371.84900	138.55824	568.19470	-380.12967	25.46403	570.92969	572.38190	183.96317	565.19379	566.98749	
945	9.440	-112.79801	81.43146	-227.59686	251.66353	4.30040	-254.41298	-102.02812	27.68918	391.94336	293.17749	97.06302	380.81882	79.88481	1200.31079	-313.76260	-21.50875	568.92719	-372.12354	138.61046	568.11169	-379.73193	25.26863	570.81805	572.79187	183.33951	564.84729	566.90106	
946	9.450	-111.38356	72.18302	-226.72882	251.21964	4.37691	-254.22237	-102.30397	27.58119	391.97418	294.68433	88.64125	381.30032	79.84138	1200.32788	-313.21762	-21.05810	568.52838	-371.42236	138.61549	567.78351	-378.64774	25.08546	570.71558	573.30774	183.28406	564.86865	567.29956	
947	9.460	-110.52294	63.14575	-225.43408	250.50191	4.35055	-254.09715	-102.87454	27.71319	391.94977	296.08563	80.68895	381.95294	79.23233	1200.16248	-312.47726	-20.82873	568.28094	-370.88974	138.85902	567.81439	-378.50839	25.08440	570.75085	573.71686	181.98125	565.30402	568.56476	
948	9.470	-109.74853	54.22308	-224.02066	249.63721	4.17073	-254.22510	-104.02663	27.95081	392.06839	296.77966	72.48929	382.64114	78.86841	1199.76514	-311.58456	-21.28589	568.10614	-370.38202	138.76152	567.85333	-378.12347	24.82595	570.52997	574.32355	181.66234	564.87067	568.40753	
949	9.480	-110.24532	46.44578	-222.63716	248.95717	4.03069	-254.35214	-104.66059	28.01794	392.16608	296.78732	64.58695	383.64258	77.93147	1199.80469	-311.30521	-21.26322	567.72906	-369.96875	138.72072	567.82428	-377.59616	24.20756	570.32867	574.69550	181.41489	564.68597	568.85645	
950	9.490	-110.75121	39.02782	-221.44582	248.31400	4.01145	-254.27446	-105.18736	28.08011	392.19162	297.20398	57.64097	384.96118	76.84545	1199.85498	-311.18939	-21.31849	567.63574	-369.47983	138.78717	567.61365	-376.94043	24.18899	570.10815	575.38422	181.78149	565.02783	570.27808	
951	9.500	-111.23147	32.64514	-220.53612	247.70927	3.90096	-254.21428	-105.85268	28.22396	392.33426	296.38351	51.01727	385.98883	75.84650	1199.62634	-310.91229	-21.02580	567.48364	-368.84079	138.90323	567.59253	-376.48807	24.07680	569.79840	575.92505	181.74956	564.65076	570.08685	
952	9.510	-111.99974	26.33114	-219.02750	246.85179	3.69572	-254.31738	-106.89973	28.48861	392.42059	296.03430	44.51400	387.31519	74.89336	1199.43958	-310.25391	-20.74840	567.11676	-368.22214	139.55809	567.73376	-376.24081	24.52171	569.76917	577.06580	181.55620	564.45966	570.67310	
953	9.520	-112.14081	20.06602	-218.55434	245.93114	3.49828	-254.17886	-107.47929	28.41522	392.39313	295.58746	38.39736	388.10205	74.18781	1199.23792	-309.56796	-19.97174	566.68567	-367.32654	139.72437	567.70526	-375.24246	24.25725	569.44073	577.14374	182.07671	564.85236	571.64404	
954	9.530	-112.93300	13.04068	-217.45636	245.18889	3.32795	-254.12869	-108.25197	28.23611	392.36484	295.24902	36.65812	386.59674	73.68468	1199.53052	-309.07990	-20.45075	566.74615	-366.90268	139.58273	567.80920	-374.63602	23.96755	569.06012	577.58289	180.24883	564.02740	571.32605	
955	9.540	-113.36502	8.29335	-217.27156	244.40230	3.11523	-253.99086	-108.86965	28.22914	392.43570	295.16562	33.93716	386.75345	73.28336	1199.22229	-307.86588	-20.59301	566.10913	-366.35284	139.40894	567.67487	-374.31046	23.86064	569.68896	578.95233	179.75267	564.80164	572.01746	
956	9.550	-115.46226	7.24040	-219.52644	243.33862	3.12748	-253.80516	-109.58979	28.62798	392.45117	294.97351	35.34548	386.65308	73.29863	1199.20203	-307.20871	-20.65408	566.00751	-365.91354	139.05144	567.51282	-372.75467	23.49234	570.55170	579.14728	180.24440	566.38275	573.17352	
957	9.560	-116.56197	7.17328	-217.97929	242.90970	3.81719	-253.42517	-109.92467	29.40718	392.75504	293.65427	34.44910	386.82904	72.82583	1199.55115	-307.06116	-20.06297	566.72888	-364.89301	140.05968	567.94434	-372.61633	22.96280	571.47009	579.36450	180.04132	567.15033	573.72522	
958	9.570	-116.95388	7.43406	-218.21938	242.04585	5.68854	-254.23328	-110.58035	30.58502	392.32288	293.01010	34.06671	388.34293	72.47134	1200.38770	-307.26199	-19.76678	568.23029	-364.14008	139.88925	569.77582	-372.11792	22.25709	571.53693	580.25000	179.19835	567.28864	574.43140	
959	9.580	-117.31327	7.65064	-218.10242	238.94376	9.53474	-251.47409	-108.99091	33.83168	392.69882	292.34619	33.56679	386.92276	72.10019	1201.86511	-307.39236	-19.77761	569.65863	-363.96017	140.28575	571.26593	-371.55240	22.04577	570.76801	581.15375	179.11694	566.87280	575.19476	
960	9.590	-118.04478	7.67532	-218.81906	235.57977	15.59101	-248.52042	-106.27563	36.73185	396.03552	291.47363	33.52954	386.90271	71.74895	1203.01672	-306.19708	-19.74926	570.55420	-363.69351	139.70929	572.14417	-371.53946	21.41980	570.63245	580.90875	178.32684	566.65417	575.17273	
961	9.600	-119.26436	7.41839	-219.07773	233.23102	24.77073	-246.45337	-101.23808	46.66962	395.44318	290.53949	33.52287	386.89401	71.86863	1203.99707	-304.53235	-19.84702	570.61987	-363.58945	139.45284	572.28210	-371.33536	20.85587	570.80328	581.04108	177.76782	566.75739	575.33337	
962	9.610	-119.70727	6.79720	-218.56209	232.22729	36.43297	-245.41438	-100.91061	57.18182	395.05206	289.63013	33.45456	387.00949	72.34865	1204.39966	-302.62225	-20.51317	570.54663	-363.42633	139.08073	572.10028	-371.00784	20.54026	571.00787	581.33521	177.43864	566.91504	575.58459	
963	9.620	-120.88547	6.95511	-218.64384	232.56026	49.00141	-245.81920	-101.24474	70.30119	395.05182	288.83081	33.22947	387.12543	72.95147	1204.29199	-301.49609	-22.49264	570.94403	-363.56360	137.39285	571.77722	-370.66852	20.33404	570.87494	581.81598	177.37308	566.95612	576.48297	
964	9.630	-122.01772	7.30471	-218.29146	233.65367	62.10400	-246.06087	-103.18166	82.88995	395.10706	288.03387	33.01030	387.37637	73.29926	1203.41199	-301.10327	-22.39133	570.47076	-362.37228	136.98701	571.89038	-370.13849	20.18820	570.21539	582.22858	177.66345	566.26477	576.42639	
965	9.640	-122.69567	6.61248	-218.38004	234.98921	75.23321	-246.04710	-105.52910	94.80066	396.21802	287.41183	32.68861	387.12015	72.69270	1202.81018	-301.60184	-23.57531	570.52686	-361.78940	135.82643	571.40100	-369.49020	20.05235	569.74695	582.90582	177.59518	565.17438	576.98071	
966	9.650	-123.96943	6.48796	-218.22598	236.07324	87.39321	-245.77229	-108.77010	109.10602	396.11218	286.54990	32.66511	387.14990	71.78529	1201.99939	-301.62354	-25.56077	570.01703	-361.67484	135.16202	570.86731	-369.40656	19.94879	569.49335	583.39050	177.28777	564.68536	577.20282	
967	9.660	-124.79450	6.25874	-218.02461	236.56924	99.33317	-245.11562	-108.42638	120.01541	397.84509	285.53937	32.51802	387.14056	70.08559	1201.27551	-301.69275	-25.34559	569.07617	-360.59717	133.77882	569.69861	-368.72507	19.81114	569.39996	583.78888	177.91455	565.04602	578.28070	
968	9.670	-126.04862	6.62654	-217.87677	236.28618	110.62522	-243.94426	-107.66018	130.75928	399.61832	284.72458	32.50281	387.34039	68.86893	1200.83630	-301.37979	-27.49788	569.08704	-360.49695	133.08253	569.25958	-368.71063	19.85599	569.49573	584.43616	177.64960	565.08881	578.62823	
969	9.680	-126.90789	6.64169	-217.69543	235.60487	120.44479	-242.65735	-107.78253	141.44525	400.54382	284.11255	32.76987	387.48230	68.28641	1200.49121	-301.08768	-28.35252	568.73334	-359.91260	131.89803	568.62866	-367.92441	19.30944	569.81165	584.92053	177.13489	564.93628	578.38037	
970	9.690	-127.70556	6.36444	-217.59094	234.90714	128.03387	-241.54529	-107.81004	150.50008	401.98349	283.02618	32.55900	387.35062	68.14314	1199.99512	-301.27982	-29.46214	567.79871	-359.06235	130.86624	567.97729	-367.50232	19.11341	569.88116	585.45160	175.87929	564.92456	578.73254	
971	9.700	-129.18532	6.76877	-217.37698	234.46219	132.73164	-239.77768	-108.19618	156.74808	403.51962	282.17688	32.44870	387.43350	68.37967	1199.18530	-300.94662	-30.87321	567.29376	-358.48767	129.55470	567.42242	-366.81403	18.89517	570.13965	585.98297	175.79091	565.37952	579.90894	
972	9.710	-129.63696	6.42969	-217.34778	234.45869	134.66988	-237.77452	-109.36137	159.04074	405.46265	281.32477	32.41475	387.48248	68.25105	1198.44910	-301.23862	-32.17752	566.67755	-357.54382	128.01758	566.75116	-366.22769	18.59170	570.51099	586.80029	175.10875	564.93744	579.81915	
